HIERARCHY
ROOT Hips
{
	OFFSET -3.958830 18.904000 13.208200
	CHANNELS 6 Xposition Yposition Zposition Zrotation Yrotation Xrotation 
	JOINT LHipJoint
	{
		OFFSET 0.000000 0.000000 0.000000
		CHANNELS 3 Zrotation Yrotation Xrotation
		JOINT LeftUpLeg
		{
			OFFSET 1.800000 -1.400000 0.085000
			CHANNELS 3 Zrotation Yrotation Xrotation
			JOINT LeftLeg
			{
				OFFSET 2.215000 -6.000000 0.000000
				CHANNELS 3 Zrotation Yrotation Xrotation
				JOINT LeftFoot
				{
					OFFSET 2.500000 -6.900000 0.000000
					CHANNELS 3 Zrotation Yrotation Xrotation
					JOINT LeftToeBase
					{
						OFFSET 0.200000 -0.500000 1.950000
						CHANNELS 3 Zrotation Yrotation Xrotation
						End Site
						{
							OFFSET 0.000000 0.000000 0.000000
						}
					}
				}
			}
		}
	}
	JOINT RHipJoint
	{
		OFFSET 0.000000 0.000000 0.000000
		CHANNELS 3 Zrotation Yrotation Xrotation
		JOINT RightUpLeg
		{
			OFFSET -1.800000 -1.400000 0.085000
			CHANNELS 3 Zrotation Yrotation Xrotation
			JOINT RightLeg
			{
				OFFSET -2.215000 -6.000000 0.000000
				CHANNELS 3 Zrotation Yrotation Xrotation
				JOINT RightFoot
				{
					OFFSET -2.500000 -6.900000 0.000000
					CHANNELS 3 Zrotation Yrotation Xrotation
					JOINT RightToeBase
					{
						OFFSET -0.200000 -0.500000 1.950000
						CHANNELS 3 Zrotation Yrotation Xrotation
						End Site
						{
							OFFSET 0.000000 0.000000 0.000000
						}
					}
				}
			}
		}
	}
	JOINT LowerBack
	{
		OFFSET 0.000000 0.000000 0.000000
		CHANNELS 3 Zrotation Yrotation Xrotation
		JOINT Spine
		{
			OFFSET -0.087000 1.940000 -0.288900
			CHANNELS 3 Zrotation Yrotation Xrotation
			JOINT Spine1
			{
				OFFSET 0.000000 1.950000 0.060000
				CHANNELS 3 Zrotation Yrotation Xrotation
				JOINT Neck
				{
					OFFSET 0.000000 0.000000 0.000000
					CHANNELS 3 Zrotation Yrotation Xrotation
					JOINT Neck1
					{
						OFFSET 0.000000 1.600000 0.340000
						CHANNELS 3 Zrotation Yrotation Xrotation
						JOINT Head
						{
							OFFSET 0.000000 1.667000 -0.240000
							CHANNELS 3 Zrotation Yrotation Xrotation
							End Site
							{
								OFFSET 0.000000 0.000000 0.000000
							}
						}
					}
				}
				JOINT LeftShoulder
				{
					OFFSET 0.000000 0.000000 0.000000
					CHANNELS 3 Zrotation Yrotation Xrotation
					JOINT LeftArm
					{
						OFFSET 2.700000 1.550000 -0.730000
						CHANNELS 3 Zrotation Yrotation Xrotation
						JOINT LeftForeArm
						{
							OFFSET 5.450000 0.000000 0.000000
							CHANNELS 3 Zrotation Yrotation Xrotation
							JOINT LeftHand
							{
								OFFSET 3.450000 0.000000 0.000000
								CHANNELS 3 Zrotation Yrotation Xrotation
								JOINT LeftHandIndex1
								{
									OFFSET 0.750000 0.000000 0.000000
									CHANNELS 3 Zrotation Yrotation Xrotation
									End Site
									{
										OFFSET 0.000000 0.000000 0.000000
									}
								}
							}
						}
					}
				}
				JOINT RightShoulder
				{
					OFFSET 0.000000 0.000000 0.000000
					CHANNELS 3 Zrotation Yrotation Xrotation
					JOINT RightArm
					{
						OFFSET -2.700000 1.550000 -0.730000
						CHANNELS 3 Zrotation Yrotation Xrotation
						JOINT RightForeArm
						{
							OFFSET -5.450000 0.000000 0.000000
							CHANNELS 3 Zrotation Yrotation Xrotation
							JOINT RightHand
							{
								OFFSET -3.450000 0.000000 0.000000
								CHANNELS 3 Zrotation Yrotation Xrotation
								JOINT RightHandIndex1
								{
									OFFSET -0.750000 0.000000 0.000000
									CHANNELS 3 Zrotation Yrotation Xrotation
									End Site
									{
										OFFSET 0.000000 0.000000 0.000000
									}
								}
							}
						}
					}
				}
			}
		}
	}
}
MOTION
Frames: 13
Frame Time: 0.016667
-0.630690 16.450570 -2.678340 -2.895178 -24.207171 -5.985761 -15.745224 12.571237 5.562582 21.880195 -3.362911 -42.767830 -6.200661 15.350478 48.511938 0.458624 9.760082 0.788291 0.396100 0.361400 0.359290 17.930482 -10.240567 1.238633 -11.404517 1.484095 -8.111300 -3.234939 -10.061065 57.255619 -1.435434 -8.560936 1.339528 0.188560 -0.167640 0.062020 -2.069649 -3.591595 -8.441677 -6.989152 5.921175 21.601747 1.202275 8.142737 7.616851 -0.525952 -7.554519 -14.356135 -25.024495 14.832533 43.635770 2.397480 9.292540 -16.393120 -19.989764 -18.235612 4.476447 -50.386455 -28.974542 9.097331 -95.429098 -66.361673 61.469540 -3.707904 3.068498 0.547900 -0.218780 0.323610 0.013500 21.998766 24.937921 12.829478 53.777729 -0.214648 -12.540145 31.202409 37.868807 5.466110 2.281383 -1.351821 -0.060950 0.203060 -0.057110 -0.175830 
-0.648630 16.701760 -2.595290 -3.524850 -24.187494 -4.937726 -15.642799 12.930928 5.101319 20.390859 -3.015860 -39.729724 -5.510481 13.255153 43.199064 0.258616 8.592262 1.186565 0.326510 0.279160 0.300230 17.931155 -10.533266 1.309686 -11.375745 0.694856 -6.429936 -1.916415 -9.758407 51.288019 -1.191915 -7.776873 1.607645 0.144210 -0.103370 0.066690 -2.141398 -3.527625 -8.155890 -4.530448 5.187496 18.185376 1.212242 7.211525 8.141632 -0.213620 -7.092699 -13.942205 -23.227208 14.751824 43.668348 2.543380 9.372020 -13.000680 -17.516704 -16.176191 4.451425 -51.986675 -26.568366 7.372148 -78.529266 -61.409119 44.252225 -3.623914 3.306926 0.494100 -0.161580 0.264910 0.014380 18.848247 22.406700 12.125677 55.566952 -0.153326 -12.370093 33.074003 38.498786 6.078099 2.308896 -1.380455 -0.073540 0.185810 -0.028600 -0.159940 
-0.672710 16.982110 -2.523430 -4.176078 -24.611590 -3.517538 -15.492389 13.238236 4.566755 18.941502 -2.344672 -36.431441 -4.821611 11.094528 36.591675 0.055891 7.204513 1.675547 0.268710 0.218470 0.237970 17.985088 -10.844923 1.438147 -11.111317 0.170648 -5.218962 -0.718637 -9.153072 45.052437 -0.949197 -6.968885 1.892247 0.112680 -0.041700 0.074500 -2.380153 -3.274130 -7.795489 -1.582478 4.581217 14.573949 0.533640 6.345410 8.702758 0.065238 -6.913042 -13.390197 -21.803152 14.568652 42.762741 2.548960 9.296870 -9.929050 -14.743953 -13.583377 4.324195 -54.779184 -24.437067 6.008913 -65.477856 -54.815672 31.108792 -3.602960 3.364264 0.424480 -0.103020 0.204160 0.020100 15.377449 19.495571 11.124218 58.253018 0.678206 -11.887863 34.515677 38.668540 6.522756 2.336155 -1.431942 -0.074620 0.161240 -0.006710 -0.135470 
-0.692540 17.293500 -2.474740 -4.857986 -24.862089 -2.177990 -15.328509 13.460796 4.060297 17.730856 -1.734035 -32.988559 -4.535020 9.211195 29.667285 -0.087902 5.874162 2.177787 0.227180 0.176360 0.189840 18.070152 -11.103036 1.601053 -10.557521 -0.175625 -4.505650 0.364083 -8.562776 39.569079 -0.762097 -6.299289 2.142842 0.090830 0.008500 0.076010 -2.714763 -2.952288 -7.450496 1.482695 3.964184 11.651309 -0.385615 5.450827 9.159492 0.334764 -6.826191 -12.868402 -20.752923 14.281461 42.191467 2.030060 9.278620 -6.897600 -12.618603 -11.399147 4.171113 -56.469929 -22.440096 4.794906 -54.840841 -47.926322 21.432712 -3.612794 3.362625 0.351790 -0.051690 0.150460 0.037240 12.543385 17.017166 10.191089 60.228281 1.793038 -11.052408 35.307794 37.982606 6.647373 2.359372 -1.492499 -0.071710 0.140050 -0.002530 -0.111830 
-0.720620 17.618030 -2.446010 -5.062631 -24.790486 -1.101135 -15.199926 13.635154 3.644427 16.118506 -1.449806 -29.859798 -4.029718 7.470663 23.212748 -0.191047 4.713122 2.640019 0.171560 0.113680 0.128200 18.135815 -11.264008 1.760903 -10.300393 -0.477987 -3.832698 1.668399 -8.005571 33.649626 -0.582409 -5.653145 2.391407 0.060490 0.063130 0.078130 -2.982900 -2.753795 -7.166132 3.618848 3.296100 9.327150 -1.074536 4.491872 9.173681 0.529573 -7.133408 -12.561104 -20.770864 14.081176 41.309228 1.463260 8.948160 -4.064670 -12.085700 -10.173907 4.190250 -57.430552 -19.974774 3.586276 -46.935990 -41.142967 14.773943 -3.645875 3.337274 0.289540 -0.003240 0.091970 0.046010 11.583433 15.820051 9.658242 60.880429 2.626105 -10.228363 34.743134 36.603729 6.264147 2.378600 -1.520047 -0.076590 0.121050 0.018290 -0.089010 
-0.757730 17.939260 -2.444800 -5.061783 -24.648018 -0.306371 -15.137303 13.652463 3.416428 15.169418 -1.236679 -26.844272 -4.750232 6.391330 17.171638 -0.225387 3.966997 2.952494 0.160690 0.104650 0.120480 18.173909 -11.312660 1.886072 -9.657743 -0.655328 -3.407871 2.166793 -7.232252 28.663679 -0.479515 -5.101582 2.602222 0.048830 0.073240 0.080910 -3.128708 -2.555314 -7.010428 4.538236 2.945362 7.635267 -1.551230 3.868818 9.230122 0.790861 -6.669734 -12.167258 -19.035630 13.721470 41.648780 1.286050 9.249030 -2.785290 -11.998550 -9.594310 4.101076 -57.351129 -18.078108 2.798093 -42.347954 -34.678185 10.691253 -3.659711 3.308554 0.258070 0.013690 0.080360 0.056470 10.933950 14.824701 9.170314 61.677597 3.453090 -9.596366 35.209387 35.858641 6.260202 2.401135 -1.549881 -0.067280 0.103040 0.005710 -0.079270 
-0.784870 18.251960 -2.468720 -4.992371 -24.350472 0.186348 -15.100392 13.604505 3.317375 14.303784 -1.234437 -24.469201 -5.512239 5.722044 13.089197 -0.228203 3.600898 3.111417 0.158510 0.101340 0.133860 18.202847 -11.273752 2.006649 -9.376685 -0.764776 -3.153393 3.339641 -6.931863 24.560859 -0.434064 -4.732982 2.740504 0.033890 0.053470 0.082050 -3.240520 -2.442862 -6.986606 5.470205 2.481328 6.844973 -2.160323 3.282136 9.294436 1.200004 -6.325685 -12.240914 -18.228519 13.677217 42.971377 0.866890 9.614830 -2.389740 -12.410459 -9.914401 4.285641 -56.799319 -16.365185 1.915848 -38.481751 -30.232084 8.002287 -3.654958 3.257476 0.262060 0.005320 0.095800 0.051340 10.534031 14.819557 9.116775 61.864681 4.007824 -9.334891 36.547017 36.121037 6.702469 2.420035 -1.559014 -0.056440 0.089790 -0.003450 -0.082730 
-0.809500 18.527090 -2.490360 -5.081550 -23.995361 0.670340 -15.065736 13.563536 3.269423 13.693962 -1.244319 -22.709538 -6.229161 5.455013 10.999338 -0.221650 3.502333 3.161801 0.156190 0.092430 0.144660 18.239150 -11.225385 2.089574 -9.029088 -0.772046 -3.293111 3.995051 -6.679468 22.004144 -0.408401 -4.500119 2.823966 0.022160 0.034630 0.087450 -3.366089 -2.379314 -6.982769 6.715726 1.817993 6.516050 -2.838821 2.549462 9.168276 1.548843 -6.286852 -12.211994 -17.955707 13.911478 43.465920 0.266860 10.169720 -2.348650 -13.038213 -9.672958 4.357452 -56.174397 -14.205975 0.923095 -36.545049 -26.630898 6.305681 -3.654787 3.225088 0.273480 -0.001630 0.107060 0.042630 10.411106 14.416386 8.943269 61.695937 4.253848 -9.233645 38.746939 37.045162 7.615156 2.429274 -1.577478 -0.051810 0.074740 -0.004160 -0.092180 
-0.830780 18.770690 -2.514060 -4.959444 -23.370959 0.887041 -15.052994 13.590121 3.234883 12.872095 -1.347658 -22.104337 -6.773065 5.655467 11.701981 -0.197913 3.557207 3.149276 0.152210 0.086730 0.149910 18.247443 -11.204190 2.140678 -8.760783 -0.634220 -4.120213 4.605239 -6.669834 21.364187 -0.387164 -4.400181 2.855759 0.012880 0.027210 0.092460 -3.400332 -2.386396 -6.990535 7.220455 1.172199 6.696621 -3.012426 1.852337 8.882205 1.762634 -6.194830 -11.962818 -17.322396 13.836158 43.300001 -0.358760 10.618610 -2.171950 -13.719136 -9.155555 4.297756 -56.037038 -12.383962 0.037344 -35.185116 -23.873607 5.106232 -3.662142 3.209486 0.266360 0.001230 0.108980 0.040260 10.630260 13.770348 8.583016 61.257210 4.464923 -9.154490 40.244058 37.693261 8.300121 2.441572 -1.598446 -0.044600 0.060470 -0.008940 -0.093610 
-0.850620 18.968070 -2.544450 -4.560060 -22.891437 1.127449 -15.058208 13.634679 3.224046 11.930092 -1.551106 -22.248393 -7.251855 6.137451 13.956005 -0.182334 3.730108 3.088584 0.141640 0.066290 0.161780 18.233514 -11.199633 2.163955 -8.825760 -0.378571 -5.458779 5.277775 -6.826652 21.710477 -0.364955 -4.362532 2.854486 0.002740 0.016830 0.098670 -3.366103 -2.408361 -7.006523 7.111897 0.635334 7.134921 -2.942431 1.281874 8.632729 2.005237 -6.033673 -11.601008 -16.242879 13.270091 42.287812 -1.729960 11.123540 -2.650540 -13.747909 -8.269816 4.181084 -56.383372 -10.631312 -1.018298 -36.031470 -22.435686 4.644150 -3.669403 3.208382 0.268390 0.005550 0.109560 0.031540 10.177405 12.837089 8.087218 61.319335 4.896159 -9.027046 42.378961 38.090635 9.112849 2.448563 -1.626654 -0.049570 0.049270 -0.008290 -0.106180 
-0.868980 19.148350 -2.572180 -4.256374 -22.779499 1.260754 -15.042083 13.670963 3.239835 11.159516 -1.761070 -22.162710 -7.814314 6.657988 16.111064 -0.148738 3.946500 3.006814 0.143080 0.061770 0.178940 18.235210 -11.214745 2.184665 -8.766857 -0.101221 -6.955183 5.526322 -6.908096 22.481808 -0.346991 -4.321712 2.853433 -0.003850 -0.001770 0.103530 -3.383077 -2.395089 -7.054168 7.491779 0.254031 7.932156 -3.112010 0.941870 8.138632 2.229549 -5.799028 -11.323489 -15.192575 12.954723 41.490453 -2.440350 11.636120 -3.164090 -14.761323 -7.854968 4.066058 -55.574789 -8.899134 -2.088176 -36.250188 -21.680345 4.303341 -3.666703 3.210033 0.271690 0.002030 0.115490 0.023340 10.695681 12.234320 7.769779 60.715235 4.569520 -9.244182 44.024219 38.306599 9.685111 2.458267 -1.643357 -0.045560 0.031890 -0.014790 -0.117240 
-0.881900 19.294760 -2.600570 -3.930227 -22.652408 1.350199 -15.022412 13.679390 3.270777 10.358794 -2.061880 -22.341134 -8.254957 7.315458 18.955397 -0.101401 4.267340 2.890629 0.138460 0.052390 0.187580 18.245085 -11.221672 2.208586 -8.839709 0.151844 -8.439100 5.935034 -7.054398 23.169745 -0.333706 -4.295872 2.848529 -0.012510 -0.009070 0.107130 -3.425285 -2.361623 -7.106736 7.958269 -0.041303 8.776482 -3.422394 0.729842 7.786126 2.368725 -5.656406 -11.178904 -14.441169 12.595292 40.513606 -2.912370 11.819460 -3.901170 -15.315204 -7.543759 4.057544 -54.964634 -7.572159 -3.121536 -37.599198 -22.868708 4.706942 -3.659544 3.217856 0.277840 -0.001560 0.121160 0.017640 10.912969 11.794862 7.570523 60.703004 4.252342 -9.610593 45.092177 38.810009 10.142488 2.462767 -1.648068 -0.045710 0.028760 -0.014770 -0.122840 
-0.895250 19.418200 -2.629510 -3.618623 -22.178028 1.417621 -14.995440 13.676273 3.276158 9.341884 -2.371082 -22.335529 -8.133790 7.699503 21.287920 -0.070622 4.490133 2.815116 0.146770 0.062000 0.197520 18.267063 -11.233974 2.239177 -8.876987 0.392216 -10.014380 6.293121 -7.169775 23.786893 -0.321393 -4.267922 2.846148 -0.005750 -0.018340 0.104550 -3.504230 -2.293124 -7.130243 8.554324 -0.461093 9.579187 -3.964905 0.404099 7.428283 2.425116 -5.587716 -10.772635 -13.789684 12.093216 39.198670 -3.345310 11.709360 -4.972630 -15.761481 -6.599677 3.805895 -54.489825 -6.330117 -4.045289 -38.886761 -24.025822 5.167172 -3.649179 3.227019 0.281440 -0.006930 0.124810 0.018100 11.128817 10.706919 7.110998 61.100980 3.992576 -9.913524 45.576912 38.933210 10.323500 2.461817 -1.653636 -0.046700 0.031400 -0.021640 -0.127140 
